Coordinates
version=1
nRows=40
nColumns=30
inDegrees=yes

Units are S.I. units (second, meters, Newtons, ...)
Angles are in degrees.

endheader
time	floatyaw	floatroll	floatpitch	floatx	floaty	floatz	pro_sup_l	deviation_l	flexion_l	cmc_flexion_l	cmc_abduction_l	mp_flexion_l	ip_flexion_l	2mcp_flexion_l	2mcp_abduction_l	2pm_flexion_l	2md_flexion_l	3mcp_flexion_l	3mcp_abduction_l	3pm_flexion_l	3md_flexion_l	4mcp_flexion_l	4mcp_abduction_l	4pm_flexion_l	4md_flexion_l	5mcp_flexion_l	5mcp_abduction_l	5pm_flexion_l	5md_flexion_l
-1.495000	-1.782892	-2.032873	94.941017	-0.007183	-0.271740	0.011607	90.234757	1.247596	-1.037687	26.431603	3.028001	-18.002467	-32.677342	19.054397	5.573043	32.928241	20.648518	8.528335	3.939173	34.913359	22.192845	-2.306392	-3.719108	51.713762	33.665260	-21.686011	-7.586044	61.304496	49.902585
-1.485000	-1.782892	-2.032873	94.941017	-0.007211	-0.271763	0.011647	90.222324	1.236065	-1.043451	26.437129	3.026658	-18.018322	-32.706293	19.069288	5.564171	32.905076	20.618953	8.543328	3.945920	34.879905	22.175099	-2.322274	-3.733325	51.674968	33.663787	-21.638776	-7.567777	61.207401	49.872298
-1.475000	-1.782892	-2.032873	94.941017	-0.007241	-0.271776	0.011690	90.220215	1.223332	-1.047694	26.441514	3.018259	-18.027361	-32.731383	19.081295	5.558635	32.880288	20.591751	8.566358	3.953982	34.838850	22.153779	-2.335097	-3.741407	51.625878	33.665154	-21.585422	-7.545656	61.092324	49.847877
-1.465000	-1.782892	-2.032873	94.941017	-0.007271	-0.271780	0.011733	90.227235	1.210709	-1.051292	26.441213	3.004910	-18.029267	-32.743724	19.089594	5.556905	32.853210	20.576698	8.596250	3.962481	34.790267	22.135303	-2.340776	-3.743194	51.567196	33.670498	-21.531113	-7.520604	60.971313	49.831472
-1.455000	-1.782892	-2.032873	94.941017	-0.007299	-0.271782	0.011772	90.237737	1.198618	-1.055572	26.434566	2.992152	-18.026875	-32.740503	19.095847	5.557987	32.824695	20.577858	8.630161	3.970449	34.736758	22.123824	-2.336075	-3.740697	51.500430	33.678736	-21.482728	-7.494099	60.856912	49.824813
-1.445000	-1.782892	-2.032873	94.941017	-0.007325	-0.271788	0.011806	90.243791	1.186446	-1.060813	26.420853	2.985690	-18.023382	-32.724094	19.101710	5.559900	32.796764	20.592421	8.662862	3.976886	34.683182	22.120594	-2.321876	-3.736957	51.429422	33.686615	-21.449779	-7.468277	60.760805	49.828442
-1.435000	-1.782892	-2.032873	94.941017	-0.007349	-0.271803	0.011836	90.239229	1.173182	-1.066239	26.400745	2.988774	-18.021117	-32.699799	19.108103	5.560833	32.770825	20.613119	8.688905	3.980855	34.634844	22.124461	-2.302306	-3.734332	51.359929	33.690387	-21.440726	-7.446124	60.691791	49.840852
-1.425000	-1.782892	-2.032873	94.941017	-0.007370	-0.271827	0.011863	90.223058	1.158418	-1.071334	26.377735	3.001716	-18.022410	-32.673969	19.116591	5.560277	32.745776	20.632197	8.706365	3.981704	34.595130	22.132651	-2.280283	-3.733176	51.296932	33.688212	-21.456685	-7.430961	60.653355	49.858593
-1.415000	-1.782892	-2.032873	94.941017	-0.007387	-0.271858	0.011887	90.199659	1.142903	-1.076767	26.357677	3.023036	-18.030277	-32.652075	19.130541	5.559248	32.717855	20.644338	8.718286	3.979270	34.564447	22.141572	-2.254390	-3.731810	51.242026	33.681687	-21.488239	-7.424968	60.641966	49.877726
-1.405000	-1.782892	-2.032873	94.941017	-0.007399	-0.271891	0.011907	90.175459	1.128176	-1.083569	26.344894	3.050590	-18.046783	-32.635841	19.153629	5.559385	32.682919	20.647436	8.729455	3.973926	34.541386	22.147935	-2.221061	-3.727886	51.193539	33.675244	-21.519420	-7.427609	60.647426	49.895628
-1.395000	-1.782892	-2.032873	94.941017	-0.007406	-0.271921	0.011924	90.154573	1.115538	-1.091306	26.337744	3.081816	-18.070212	-32.621257	19.186297	5.561620	32.639884	20.641864	8.741005	3.966496	34.524938	22.150016	-2.180300	-3.720173	51.149363	33.673420	-21.536774	-7.435386	60.655821	49.911799
-1.385000	-1.782892	-2.032873	94.941017	-0.007411	-0.271945	0.011937	90.136616	1.105117	-1.097358	26.328491	3.113768	-18.094419	-32.600739	19.223526	5.565494	32.592859	20.629355	8.748125	3.958207	34.515587	22.148151	-2.139098	-3.709501	51.109907	33.677745	-21.536879	-7.443580	60.653999	49.927550
-1.375000	-1.782892	-2.032873	94.941017	-0.007415	-0.271964	0.011948	90.117854	1.095714	-1.098314	26.308523	3.143851	-18.111836	-32.569316	19.256502	5.569517	32.550244	20.611915	8.743238	3.950630	34.514504	22.143825	-2.109085	-3.698317	51.078916	33.685557	-21.527017	-7.448939	60.633638	49.945584
-1.365000	-1.782892	-2.032873	94.941017	-0.007420	-0.271978	0.011959	90.094425	1.085701	-1.092289	26.274791	3.170887	-18.117872	-32.530023	19.277321	5.572120	32.521120	20.590886	8.721868	3.945437	34.522056	22.138105	-2.100357	-3.689332	51.062111	33.691847	-21.519113	-7.451403	60.593464	49.969957
-1.355000	-1.782892	-2.032873	94.941017	-0.007425	-0.271991	0.011971	90.065513	1.074556	-1.080298	26.232613	3.195221	-18.113264	-32.493696	19.283423	5.572502	32.511014	20.566635	8.686486	3.943912	34.537227	22.130939	-2.115987	-3.684207	51.064798	33.692959	-21.521244	-7.453709	60.539362	50.005375
-1.345000	-1.782892	-2.032873	94.941017	-0.007425	-0.272001	0.011980	90.035019	1.064086	-1.065980	26.193471	3.217334	-18.102951	-32.473339	19.278944	5.571031	32.519403	20.539424	8.646001	3.946461	34.558265	22.122054	-2.150121	-3.683013	51.089451	33.689521	-21.531991	-7.459458	60.482833	50.054772
-1.335000	-1.782892	-2.032873	94.941017	-0.007416	-0.272004	0.011979	90.010797	1.058249	-1.054223	26.169808	3.236297	-18.092727	-32.477390	19.272416	5.569158	32.540157	20.511152	8.611829	3.952425	34.583639	22.112685	-2.190066	-3.684563	51.134033	33.686443	-21.541081	-7.471022	60.438354	50.116042
-1.325000	-1.782892	-2.032873	94.941017	-0.007395	-0.271998	0.011962	90.001366	1.061268	-1.049457	26.169511	3.249904	-18.085967	-32.506046	19.272349	5.568906	32.564569	20.486590	8.593073	3.960297	34.612359	22.106459	-2.221218	-3.687201	51.192080	33.689825	-21.536154	-7.488380	60.419978	50.180539
-1.315000	-1.782892	-2.032873	94.941017	-0.007364	-0.271984	0.011929	90.011477	1.075049	-1.054140	26.192285	3.256631	-18.082153	-32.551731	19.283036	5.572028	32.585410	20.472623	8.593160	3.968197	34.643579	22.108221	-2.232867	-3.689503	51.254921	33.702805	-21.511599	-7.509106	60.437685	50.235344
-1.305000	-1.782892	-2.032873	94.941017	-0.007327	-0.271965	0.011882	90.039207	1.097695	-1.067895	26.229430	3.257436	-18.077744	-32.602470	19.302618	5.579083	32.600107	20.475259	8.609242	3.974390	34.676061	22.121191	-2.222288	-3.690594	51.314982	33.723095	-21.473599	-7.529337	60.494408	50.268426
-1.295000	-1.782892	-2.032873	94.941017	-0.007291	-0.271948	0.011832	90.076727	1.124189	-1.087787	26.267625	3.255430	-18.068858	-32.646538	19.324278	5.588894	32.611549	20.495916	8.634285	3.977716	34.708098	22.144189	-2.194953	-3.690088	51.367984	33.743747	-21.437544	-7.545381	60.584718	50.273563
-1.285000	-1.782892	-2.032873	94.941017	-0.007261	-0.271938	0.011789	90.114566	1.148809	-1.109765	26.295632	3.253383	-18.054420	-32.677302	19.339861	5.598878	32.626179	20.529331	8.660734	3.977865	34.737872	22.170790	-2.160514	-3.687846	51.412560	33.756467	-21.418684	-7.555304	60.695376	50.252059
-1.275000	-1.782892	-2.032873	94.941017	-0.007242	-0.271937	0.011759	90.146825	1.167697	-1.130563	26.310753	3.250935	-18.037950	-32.696802	19.343960	5.606277	32.650362	20.564566	8.683882	3.975382	34.763878	22.191054	-2.126934	-3.683753	51.447901	33.755297	-21.421731	-7.559675	60.807255	50.210770
-1.265000	-1.782892	-2.032873	94.941017	-0.007234	-0.271942	0.011747	90.173847	1.180070	-1.148790	26.320666	3.243663	-18.026504	-32.715417	19.336205	5.609547	32.686674	20.588788	8.703078	3.971302	34.785069	22.195054	-2.096941	-3.677680	51.471879	33.738792	-21.436892	-7.560953	60.898323	50.158538
-1.255000	-1.782892	-2.032873	94.941017	-0.007237	-0.271948	0.011752	90.200297	1.187518	-1.164331	26.338122	3.224942	-18.026888	-32.745665	19.320621	5.608809	32.731606	20.592138	8.720059	3.966499	34.800532	22.176681	-2.069660	-3.669617	51.481687	33.710143	-21.446218	-7.561944	60.947723	50.103669
-1.245000	-1.782892	-2.032873	94.941017	-0.007250	-0.271950	0.011770	90.229834	1.192045	-1.176512	26.370969	3.189978	-18.041403	-32.792359	19.302902	5.604995	32.775473	20.571694	8.735764	3.961158	34.808747	22.136244	-2.045982	-3.659888	51.476510	33.675796	-21.436548	-7.564326	60.940522	50.053421
-1.235000	-1.782892	-2.032873	94.941017	-0.007272	-0.271945	0.011797	90.260252	1.194211	-1.182733	26.414445	3.139930	-18.066161	-32.845825	19.287628	5.598581	32.804892	20.532903	8.748256	3.954851	34.807063	22.080941	-2.032557	-3.649220	51.459643	33.643402	-21.409578	-7.568164	60.871862	50.014326
-1.225000	-1.782892	-2.032873	94.941017	-0.007302	-0.271932	0.011832	90.282943	1.192539	-1.179070	26.452038	3.083559	-18.093356	-32.884480	19.276992	5.589203	32.807480	20.487722	8.753377	3.947236	34.792307	22.022995	-2.040236	-3.638618	51.437920	33.619676	-21.381227	-7.572465	60.748895	49.991541
-1.215000	-1.782892	-2.032873	94.941017	-0.007340	-0.271914	0.011871	90.287360	1.184494	-1.162761	26.465001	3.034795	-18.115908	-32.886513	19.271175	5.576542	32.777091	20.449994	8.747514	3.938890	34.762713	21.975996	-2.077535	-3.629171	51.418533	33.608727	-21.370624	-7.576154	60.589370	49.986843
-1.205000	-1.782892	-2.032873	94.941017	-0.007380	-0.271895	0.011914	90.267545	1.168367	-1.134802	26.443942	3.007030	-18.131056	-32.843149	19.269432	5.561601	32.717112	20.430045	8.730263	3.931585	34.720154	21.950764	-2.143783	-3.621979	51.405335	33.611324	-21.386748	-7.578756	60.417016	49.996926
-1.195000	-1.782892	-2.032873	94.941017	-0.007419	-0.271880	0.011958	90.226415	1.144919	-1.100580	26.394422	3.007051	-18.140358	-32.764440	19.270782	5.547109	32.640093	20.431029	8.704987	3.927710	34.671167	21.952260	-2.227048	-3.618203	51.397226	33.625272	-21.422207	-7.580488	60.255420	50.014059
-1.185000	-1.782892	-2.032873	94.941017	-0.007451	-0.271872	0.011996	90.175154	1.117827	-1.067767	26.333095	3.031803	-18.146394	-32.673895	19.273696	5.536470	32.563963	20.448651	8.676680	3.929097	34.625974	21.978713	-2.308871	-3.618968	51.390108	33.646454	-21.458291	-7.581952	60.122990	50.029466
-1.175000	-1.782892	-2.032873	94.941017	-0.007471	-0.271870	0.012025	90.128389	1.092666	-1.042687	26.277614	3.069491	-18.149051	-32.595857	19.275302	5.531874	32.506453	20.474118	8.648692	3.935943	34.595661	22.023106	-2.373095	-3.624958	51.381258	33.669938	-21.477323	-7.583802	60.030881	50.037438
-1.165000	-1.782892	-2.032873	94.941017	-0.007477	-0.271872	0.012041	90.098329	1.074958	-1.027623	26.237600	3.104434	-18.144705	-32.543810	19.271561	5.532972	32.479545	20.498667	8.621087	3.946548	34.588325	22.076138	-2.412747	-3.635829	51.372479	33.690930	-21.473303	-7.586551	59.983804	50.037301
-1.155000	-1.782892	-2.032873	94.941017	-0.007470	-0.271872	0.012041	90.090918	1.068227	-1.020936	26.212306	3.123600	-18.129164	-32.516311	19.259441	5.537262	32.485503	20.517397	8.592344	3.958092	34.605552	22.129261	-2.430204	-3.649918	51.368927	33.705703	-21.453702	-7.590404	59.981982	50.031906
-1.145000	-1.782892	-2.032873	94.941017	-0.007455	-0.271867	0.012029	90.105047	1.072883	-1.019549	26.194922	3.122080	-18.101765	-32.501441	19.240103	5.542003	32.515900	20.530599	8.563008	3.967959	34.641023	22.176591	-2.431502	-3.664551	51.374328	33.712629	-21.432435	-7.595028	60.022457	50.024022
-1.135000	-1.782892	-2.032873	94.941017	-0.007435	-0.271857	0.012010	90.134097	1.086322	-1.021572	26.178777	3.104808	-18.066778	-32.485264	19.220385	5.546129	32.554604	20.542072	8.537783	3.974767	34.682571	22.215187	-2.420264	-3.676923	51.386875	33.712862	-21.420380	-7.599434	60.099146	50.013706
-1.125000	-1.782892	-2.032873	94.941017	-0.007413	-0.271845	0.011987	90.168782	1.104200	-1.026997	26.160664	3.083188	-18.030649	-32.458561	19.210508	5.550618	32.584124	20.555513	8.523802	3.978591	34.717169	22.244071	-2.396240	-3.685034	51.399605	33.709973	-21.420464	-7.602376	60.202249	49.998865
-1.115000	-1.782892	-2.032873	94.941017	-0.007391	-0.271835	0.011962	90.200292	1.122318	-1.036204	26.140054	3.068186	-17.997327	-32.419008	19.218649	5.557019	32.592767	20.571248	8.525916	3.980390	34.736433	22.263059	-2.359013	-3.688167	51.405405	33.708303	-21.429761	-7.603229	60.318194	49.978421
-1.105000	-1.782892	-2.032873	94.941017	-0.007372	-0.271827	0.011935	90.222801	1.138208	-1.047845	26.116567	3.063906	-17.965584	-32.369810	19.245632	5.565407	32.579154	20.585410	8.542387	3.981072	34.739736	22.272400	-2.313045	-3.686743	51.403062	33.710749	-21.445347	-7.602801	60.431173	49.955181
